HIERARCHY
ROOT Hips
{
    OFFSET 0.000000 0.000000 0.000000
    CHANNELS 6 Xposition Yposition Zposition Zrotation Xrotation Yrotation
    JOINT Spine
    {
        OFFSET -0.000000 6.993131 0.000000
        CHANNELS 3 Zrotation Xrotation Yrotation
        JOINT Spine1
        {
            OFFSET -0.000000 20.649729 0.000000
            CHANNELS 3 Zrotation Xrotation Yrotation
            JOINT Neck
            {
                OFFSET -0.000000 20.564924 1.869539
                CHANNELS 3 Zrotation Xrotation Yrotation
                JOINT Head
                {
                    OFFSET -0.000000 11.939490 -1.705642
                    CHANNELS 3 Zrotation Xrotation Yrotation
                    End Site
                    {
                        OFFSET -0.000000 21.320518 0.000000
                    }
                }
            }
            JOINT LeftShoulder
            {
                OFFSET 3.446977 19.850397 -0.038759
                CHANNELS 3 Zrotation Xrotation Yrotation
                JOINT LeftArm
                {
                    OFFSET 7.083611 0.000000 0.000000
                    CHANNELS 3 Zrotation Xrotation Yrotation
                    JOINT LeftForeArm
                    {
                        OFFSET 32.044487 0.000000 0.000000
                        CHANNELS 3 Zrotation Xrotation Yrotation
                        JOINT LeftHand
                        {
                            OFFSET 22.068741 0.000000 0.000000
                            CHANNELS 3 Zrotation Xrotation Yrotation
                            End Site
                            {
                                OFFSET 12.792312 0.000000 0.000000
                            }
                        }
                    }
                }
            }
            JOINT RightShoulder
            {
                OFFSET -3.365844 19.850397 -0.038759
                CHANNELS 3 Zrotation Xrotation Yrotation
                JOINT RightArm
                {
                    OFFSET -7.083611 0.000000 0.000000
                    CHANNELS 3 Zrotation Xrotation Yrotation
                    JOINT RightForeArm
                    {
                        OFFSET -32.044487 0.000000 0.000000
                        CHANNELS 3 Zrotation Xrotation Yrotation
                        JOINT RightHand
                        {
                            OFFSET -22.068741 0.000000 0.000000
                            CHANNELS 3 Zrotation Xrotation Yrotation
                            End Site
                            {
                                OFFSET -12.792312 0.000000 0.000000
                            }
                        }
                    }
                }
            }
        }
    }
    JOINT LeftUpLeg
    {
        OFFSET 8.528208 0.000000 0.000000
        CHANNELS 3 Zrotation Xrotation Yrotation
        JOINT LeftLeg
        {
            OFFSET -0.000000 -31.874865 0.000000
            CHANNELS 3 Zrotation Xrotation Yrotation
            JOINT LeftFoot
            {
                OFFSET -0.000000 -38.221939 0.000000
                CHANNELS 3 Zrotation Xrotation Yrotation
                JOINT LeftToeBase
                {
                    OFFSET -0.000000 -5.543335 12.792312
                    CHANNELS 3 Zrotation Xrotation Yrotation
                    End Site
                    {
                        OFFSET -0.000000 0.000000 3.411283
                    }
                }
            }
        }
    }
    JOINT RightUpLeg
    {
        OFFSET -8.528208 0.000000 0.000000
        CHANNELS 3 Zrotation Xrotation Yrotation
        JOINT RightLeg
        {
            OFFSET -0.000000 -31.874865 0.000000
            CHANNELS 3 Zrotation Xrotation Yrotation
            JOINT RightFoot
            {
                OFFSET -0.000000 -38.221939 0.000000
                CHANNELS 3 Zrotation Xrotation Yrotation
                JOINT RightToeBase
                {
                    OFFSET -0.000000 -5.543335 12.792312
                    CHANNELS 3 Zrotation Xrotation Yrotation
                    End Site
                    {
                        OFFSET -0.000000 0.000000 3.411283
                    }
                }
            }
        }
    }
}
MOTION
Frames:    10
Frame Time:    0.008333
-220.443207    76.906563    35.617493    -3.528714    0.915671    90.978600    -3.286937    -9.526918    0.868267    0.736649    6.275251    1.101887    2.856013    10.548697    4.472950    -1.879541    -3.342261    4.181106    23.398355    -2.530242    -1.061459    -29.031351    -2.420077    -5.657969    2.096042    3.547911    -4.001119    -2.145961    3.714183    -4.982406    -14.254925    -1.580514    -7.319165    18.268064    0.042109    4.229515    -7.078422    8.889678    5.895233    7.719099    9.201729    -0.725902    -4.527736    -4.210216    0.403404    1.723895    5.473764    2.567884    -4.346762    -6.196086    -3.820421    0.000000    0.000000    0.000000    -9.108479    0.122827    -2.404778    11.186310    1.704134    0.237296    -5.420766    -4.004321    -13.035603    0.000000    0.000000    0.000000    
-220.445435    76.904648    35.621910    -3.542499    0.921622    90.988342    -3.298166    -9.496586    0.875384    0.722909    6.261491    1.109898    2.848386    10.621052    4.392767    -1.778505    -3.898563    4.108718    23.427183    -2.516787    -1.097556    -29.047344    -2.451404    -5.640836    2.105861    3.586803    -3.962949    -2.143034    3.752261    -4.965444    -14.195360    -1.619713    -7.411630    18.217440    0.128647    4.283916    -7.068347    8.899141    5.856471    7.723057    9.208701    -0.719962    -4.529005    -4.238296    0.482240    1.727955    5.490350    2.436380    -4.354336    -6.196450    -3.776759    0.000000    0.000000    0.000000    -9.106267    0.104481    -2.435609    11.171551    1.698452    0.139756    -5.420144    -4.010889    -12.913056    0.000000    0.000000    0.000000    
-220.446442    76.904480    35.624969    -3.552136    0.919035    91.005562    -3.273836    -9.453682    0.865582    0.677956    6.224484    1.099500    2.825883    10.731608    4.345768    -1.680946    -4.484107    4.072545    23.408371    -2.477598    -1.107024    -29.017195    -2.426993    -5.607066    2.141330    3.598465    -3.969764    -2.168697    3.765675    -4.928285    -14.143045    -1.614900    -7.369575    18.194271    0.099815    4.250238    -7.065434    8.921548    5.816123    7.756185    9.229554    -0.700405    -4.530218    -4.257333    0.476423    1.733735    5.504394    2.428478    -4.293089    -6.207494    -3.776220    0.000000    0.000000    0.000000    -9.104793    0.092576    -2.454610    11.179593    1.714120    0.213055    -5.416929    -4.016989    -13.005074    0.000000    0.000000    0.000000    
-220.437790    76.907791    35.630463    -3.546482    0.915423    91.014389    -3.275799    -9.422120    0.873273    0.667378    6.208427    1.107117    3.148697    10.573486    4.304618    -2.089686    -4.562417    3.933196    23.407974    -2.463159    -1.139934    -28.997646    -2.492930    -5.610644    2.101854    3.664201    -3.904779    -2.154462    3.827868    -4.908554    -14.088358    -1.617183    -7.373703    18.158672    0.059269    4.225753    -7.046577    8.957226    5.791838    7.779831    9.261194    -0.722107    -4.529663    -4.232869    0.501933    1.752059    5.480822    2.338407    -3.818752    -5.960446    -3.911291    0.000000    0.000000    0.000000    -9.095433    0.109475    -2.452275    11.177547    1.709266    0.162564    -5.407808    -4.015917    -12.950993    0.000000    0.000000    0.000000    
-220.436813    76.907745    35.632408    -3.550780    0.919740    91.025803    -3.289824    -9.382840    0.869008    0.682751    6.176406    1.102280    2.892630    10.950072    4.295843    -1.690717    -5.613168    4.004830    23.373587    -2.453598    -1.136764    -28.971079    -2.494446    -5.624631    2.084672    3.697579    -3.833360    -2.178522    3.860609    -4.920530    -14.089829    -1.613340    -7.347463    18.163208    0.024224    4.185486    -7.037283    8.956213    5.776234    7.810500    9.257814    -0.733284    -4.545189    -4.238154    0.489351    1.771059    5.486262    2.424296    -4.314787    -6.173787    -3.820148    0.000000    0.000000    0.000000    -9.097899    0.104659    -2.456685    11.174985    1.715877    0.183122    -5.402776    -4.017185    -12.981086    0.000000    0.000000    0.000000    
-220.437378    76.909096    35.636448    -3.568395    0.924930    91.044365    -3.334824    -9.370917    0.875336    0.737213    6.171200    1.109029    2.930331    10.934276    4.250155    -1.710711    -5.964545    3.946026    23.330803    -2.440359    -1.176825    -28.945791    -2.548799    -5.635895    1.921965    3.762065    -3.802012    -1.525853    3.892512    -5.024225    -14.081161    -1.618223    -7.364007    18.138422    0.019243    4.149014    -7.013893    8.924465    5.752043    7.780539    9.221816    -0.760586    -4.544676    -4.252203    0.473285    1.765138    5.474487    2.392667    -4.361336    -6.169386    -3.765472    0.000000    0.000000    0.000000    -9.101677    0.102660    -2.451595    11.175805    1.691968    0.157421    -5.411176    -4.012345    -12.963552    0.000000    0.000000    0.000000    
-220.443680    76.906837    35.640137    -3.606146    0.916657    91.067314    -3.347969    -9.353475    0.879832    0.756394    6.114289    1.113394    2.983706    11.026716    4.197825    -1.739647    -6.383027    3.879670    23.307514    -2.426584    -1.223797    -28.923798    -2.535263    -5.642172    1.881609    3.711984    -3.755168    -1.503557    3.838238    -4.939100    -14.000963    -1.639556    -7.459444    18.044071    0.028880    4.211873    -6.974743    8.922318    5.714261    7.789884    9.213546    -0.787904    -4.542167    -4.314673    0.462237    1.772562    5.515198    2.381110    -4.301942    -6.208099    -3.764866    0.000000    0.000000    0.000000    -9.088416    0.059311    -2.499680    11.170541    1.713365    0.160437    -5.416076    -4.020735    -12.949880    0.000000    0.000000    0.000000    
-220.439270    76.909897    35.641747    -3.607731    0.931168    91.056755    -3.400011    -9.315849    0.903075    0.819391    6.059883    1.136787    2.965430    11.054650    4.148222    -1.680409    -6.637827    3.837673    23.276255    -2.443949    -1.276462    -28.933140    -2.594810    -5.656269    1.842180    3.742320    -3.657541    -1.470148    3.864772    -4.977944    -13.993170    -1.633913    -7.451651    18.012630    0.000771    4.162315    -6.939375    8.906150    5.674056    7.746239    9.190567    -0.832067    -4.557083    -4.301746    0.463621    1.776791    5.487306    2.422643    -4.339526    -6.174542    -3.798304    0.000000    0.000000    0.000000    -9.105474    0.059967    -2.450824    11.179576    1.702215    0.119535    -5.403697    -4.019124    -12.944338    0.000000    0.000000    0.000000    
-220.432312    76.911659    35.642864    -3.613119    0.933032    91.077141    -3.446963    -9.318863    0.913574    0.887134    6.076740    1.147473    3.013562    10.966875    4.096560    -1.727112    -6.724639    3.768553    23.257557    -2.468461    -1.306336    -28.938087    -2.607854    -5.691464    1.818143    3.781574    -3.566628    -1.433412    3.901158    -5.051889    -14.053623    -1.626534    -7.409311    18.057055    -0.077742    4.050937    -6.879190    9.060388    5.664647    7.707323    9.344105    -0.792307    -4.556264    -4.287238    0.449230    1.770087    5.460878    2.435250    -4.333980    -6.154425    -3.817247    0.000000    0.000000    0.000000    -9.105950    0.078186    -2.454604    11.175243    1.675933    0.115595    -5.380797    -4.018558    -12.949738    0.000000    0.000000    0.000000    
-220.443390    76.910973    35.647038    -3.662971    0.937108    91.087959    -3.474632    -9.321145    0.916604    0.921413    6.037043    1.151402    2.618785    11.042880    4.043994    -1.041733    -7.078029    3.868828    23.255165    -2.474756    -1.339451    -28.952894    -2.618611    -5.684912    1.796539    3.795609    -3.527595    -1.433186    3.913964    -5.057689    -14.055576    -1.605564    -7.423903    18.048731    -0.099781    4.054239    -6.882158    9.082582    5.631543    7.777939    9.363244    -0.803259    -4.554040    -4.353227    0.439538    1.762322    5.480304    2.418888    -4.362365    -6.151976    -3.791396    0.000000    0.000000    0.000000    -9.105102    0.015750    -2.474909    11.170830    1.693069    0.096796    -5.406470    -4.019772    -12.937726    0.000000    0.000000    0.000000    
